<svg id="Grupo_697" data-name="Grupo 697" xmlns="http://www.w3.org/2000/svg" xmlns:xlink="http://www.w3.org/1999/xlink" width="17" height="22.666" viewBox="0 0 17 22.666">
  <defs>
    <clipPath id="clip-path">
      <path id="Mask" d="M8.5,22.666a1.049,1.049,0,0,1-.874-.457c-1.147-1.663-2.113-3.039-2.964-4.252C.8,12.459,0,11.315,0,8.5a8.5,8.5,0,1,1,17,0c0,2.816-.8,3.959-4.66,9.455-.853,1.216-1.819,2.591-2.966,4.254A1.049,1.049,0,0,1,8.5,22.666Zm0-17.708A3.542,3.542,0,1,0,12.042,8.5,3.546,3.546,0,0,0,8.5,4.958Z" transform="translate(0)" fill="#ced1dc"/>
    </clipPath>
  </defs>
  <path id="Mask-2" data-name="Mask" d="M8.5,22.666a1.049,1.049,0,0,1-.874-.457c-1.147-1.663-2.113-3.039-2.964-4.252C.8,12.459,0,11.315,0,8.5a8.5,8.5,0,1,1,17,0c0,2.816-.8,3.959-4.66,9.455-.853,1.216-1.819,2.591-2.966,4.254A1.049,1.049,0,0,1,8.5,22.666Zm0-17.708A3.542,3.542,0,1,0,12.042,8.5,3.546,3.546,0,0,0,8.5,4.958Z" transform="translate(0 0)" fill="#ced1dc"/>
  <g id="Grupo_de_máscara_697" data-name="Grupo de máscara 697" transform="translate(0 0)" clip-path="url(#clip-path)">
    <g id="_color" data-name="🎨 color" transform="translate(-2.833 0)">
      <rect id="Black" width="22.666" height="22.666" fill="#ced1dc"/>
    </g>
  </g>
</svg>
