<svg id="Grupo_776" data-name="Grupo 776" xmlns="http://www.w3.org/2000/svg" xmlns:xlink="http://www.w3.org/1999/xlink" width="22.829" height="22.833" viewBox="0 0 22.829 22.833">
  <defs>
    <clipPath id="clip-path">
      <path id="Mask" d="M20.5,22.833a1.066,1.066,0,0,1-.758-.314L15.3,18.073a1.064,1.064,0,0,1-.312-.757v-.727a9.28,9.28,0,0,1-12.267-.754A9.276,9.276,0,0,1,15.834,2.716a9.28,9.28,0,0,1,.754,12.267h.727a1.063,1.063,0,0,1,.757.312l4.446,4.445a1.079,1.079,0,0,1,0,1.517l-1.262,1.262A1.055,1.055,0,0,1,20.5,22.833ZM9.275,3.568a5.708,5.708,0,1,0,5.708,5.707A5.714,5.714,0,0,0,9.275,3.568Z" transform="translate(0 0)" fill="#ced1dd"/>
    </clipPath>
  </defs>
  <path id="Mask-2" data-name="Mask" d="M20.5,22.833a1.066,1.066,0,0,1-.758-.314L15.3,18.073a1.064,1.064,0,0,1-.312-.757v-.727a9.28,9.28,0,0,1-12.267-.754A9.276,9.276,0,0,1,15.834,2.716a9.28,9.28,0,0,1,.754,12.267h.727a1.063,1.063,0,0,1,.757.312l4.446,4.445a1.079,1.079,0,0,1,0,1.517l-1.262,1.262A1.055,1.055,0,0,1,20.5,22.833ZM9.275,3.568a5.708,5.708,0,1,0,5.708,5.707A5.714,5.714,0,0,0,9.275,3.568Z" transform="translate(0 0)" fill="#a3a9b8"/>
  <g id="Grupo_de_máscara_776" data-name="Grupo de máscara 776" transform="translate(0 0)" clip-path="url(#clip-path)">
    <g id="_color" data-name="🎨 color" transform="translate(0.016 0.045)">
      <rect id="Black" width="22.8" height="22.8" transform="translate(0 0)" fill="#ced1dd"/>
    </g>
  </g>
</svg>
