<svg xmlns="http://www.w3.org/2000/svg" width="30" height="30" viewBox="0 0 30 30">
  <path id="Subtração_2" data-name="Subtração 2" d="M15,30A15,15,0,0,1,4.393,4.393,15,15,0,1,1,25.606,25.606,14.9,14.9,0,0,1,15,30ZM7.533,8A.535.535,0,0,0,7,8.536v1.609a.536.536,0,0,0,.517.535,12.324,12.324,0,0,1,11.8,11.8.536.536,0,0,0,.535.517h1.609a.534.534,0,0,0,.387-.165A.526.526,0,0,0,22,22.448,15.012,15.012,0,0,0,7.553,8Zm0,4.829A.535.535,0,0,0,7,13.366v1.609a.536.536,0,0,0,.5.536,7.5,7.5,0,0,1,6.99,6.99.537.537,0,0,0,.536.5h1.609a.534.534,0,0,0,.391-.168.525.525,0,0,0,.145-.394A10.18,10.18,0,0,0,7.563,12.83Zm1.611,5.882a2.144,2.144,0,1,0,2.145,2.144A2.146,2.146,0,0,0,9.144,18.712Z" fill="#fff"/>
</svg>
