<svg xmlns="http://www.w3.org/2000/svg" width="30" height="30" viewBox="0 0 30 30">
  <path id="Subtração_3" data-name="Subtração 3" d="M15,30A15,15,0,0,1,4.393,4.393,15,15,0,1,1,25.606,25.606,14.9,14.9,0,0,1,15,30ZM6,21.3H6A10.73,10.73,0,0,0,11.813,23a10.318,10.318,0,0,0,7.995-3.509,11.142,11.142,0,0,0,2.774-7.262c0-.161,0-.328-.012-.491a8.08,8.08,0,0,0,1.9-1.957,7.54,7.54,0,0,1-2.179.586,3.774,3.774,0,0,0,1.664-2.086,7.493,7.493,0,0,1-2.4.914A3.788,3.788,0,0,0,15,11.786a4.267,4.267,0,0,0,.094.867,10.782,10.782,0,0,1-7.8-3.961,3.739,3.739,0,0,0-.516,1.91,3.781,3.781,0,0,0,1.688,3.153,3.818,3.818,0,0,1-1.711-.481v.047a3.8,3.8,0,0,0,3.035,3.715,4.027,4.027,0,0,1-1,.129,4.764,4.764,0,0,1-.715-.059,3.794,3.794,0,0,0,3.54,2.625,7.549,7.549,0,0,1-4.7,1.617A7.742,7.742,0,0,1,6,21.3Z" fill="#fff"/>
</svg>
